# xmcd
#
# Track frame offsets: 
#        150
#        15720
#        35237
#        53777
#        74757
#        98820
#        118230
#        140037
#        160792
#        178790
#
# Disc length: 2607 seconds
#
# Revision: 4
# Processed by: cddbd v1.5.2PL0 Copyright (c) Steve Scherf et al.
# Submitted via: ExactAudioCopy v0.99pb5
#
DISCID=960a2d0a
DTITLE=Joe Louis Walker - The Gift
DYEAR=1988
DGENRE=Blues
TTITLE0=One Time Around
TTITLE1=Thin Line
TTITLE2=747
TTITLE3=The Gift
TTITLE4=What About You
TTITLE5=Shade Tree Mechanic
TTITLE6=1/4 to 3
TTITLE7=Mama Didn't Raise No Fool
TTITLE8=Everybody's Had the Blues
TTITLE9=Main Goal
EXTD=
EXTT0=
EXTT1=
EXTT2=
EXTT3=
EXTT4=
EXTT5=
EXTT6=
EXTT7=
EXTT8=
EXTT9=
PLAYORDER=
